<?xml version="1.0" standalone="no"?>
<!DOCTYPE svg PUBLIC "-//W3C//DTD SVG 20010904//EN"
 "http://www.w3.org/TR/2001/REC-SVG-20010904/DTD/svg10.dtd">
<svg version="1.0" xmlns="http://www.w3.org/2000/svg"
 width="900.000000pt" height="1280.000000pt" viewBox="0 0 900.000000 1280.000000"
 preserveAspectRatio="xMidYMid meet">
<metadata>
Created by potrace 1.15, written by Peter Selinger 2001-2017
</metadata>
<g transform="translate(0.000000,1280.000000) scale(0.100000,-0.100000)"
fill="#000000" stroke="none">
<path d="M5870 12793 c-88 -9 -248 -50 -395 -100 -248 -85 -373 -123 -453
-135 l-72 -12 -34 33 c-18 18 -51 62 -72 98 l-38 65 -70 -6 c-223 -21 -426
-66 -845 -186 -270 -77 -455 -125 -583 -150 -50 -10 -58 -14 -58 -34 0 -13 -9
-49 -20 -81 -11 -32 -20 -78 -20 -103 0 -39 7 -55 53 -116 30 -39 103 -124
163 -189 60 -66 133 -151 163 -190 51 -69 131 -217 131 -244 0 -7 12 -13 27
-13 36 0 145 -111 233 -239 100 -144 174 -242 224 -298 44 -49 51 -52 188 -96
533 -171 899 -234 1302 -225 168 3 185 5 219 27 34 21 41 22 85 11 52 -13 61
-11 245 65 66 28 98 35 134 33 l47 -3 -39 -41 c-53 -54 -130 -82 -264 -95 -67
-7 -131 -20 -173 -36 -65 -25 -73 -26 -235 -20 -232 7 -944 94 -1120 136 -177
42 -332 100 -403 151 l-29 20 -75 -30 c-191 -76 -326 -153 -701 -405 -238
-159 -433 -280 -487 -301 -13 -4 -18 -1 -18 11 0 10 -16 52 -35 95 -19 43 -38
100 -42 126 -5 39 -18 66 -64 127 -32 42 -66 100 -76 127 -13 37 -25 53 -46
61 -16 7 -46 35 -66 63 -51 69 -63 78 -116 84 l-45 5 0 -53 0 -54 82 -78 c105
-100 102 -105 -74 -123 -77 -7 -136 -18 -157 -29 -33 -18 -34 -18 -28 -74 3
-32 19 -87 36 -126 l31 -69 104 7 c94 7 208 25 246 40 11 5 31 -14 67 -61 68
-91 83 -123 83 -180 0 -46 -2 -49 -84 -128 -69 -67 -85 -88 -94 -127 -10 -38
-24 -57 -76 -105 -36 -32 -96 -95 -135 -140 -44 -51 -83 -86 -104 -94 -24 -8
-41 -26 -64 -69 -28 -50 -78 -120 -231 -320 -23 -30 -71 -111 -108 -181 -55
-106 -75 -134 -129 -182 -49 -44 -71 -74 -98 -131 -38 -79 -86 -141 -118 -151
-10 -4 -19 -14 -19 -23 0 -29 -45 -115 -89 -169 l-42 -52 -50 35 c-86 63 -89
69 -89 213 0 136 -7 159 -49 163 -22 3 -25 -3 -38 -56 -17 -77 -45 -121 -96
-150 -124 -72 -347 -15 -502 126 -110 101 -143 209 -100 328 48 135 152 190
275 146 l34 -13 -49 -12 c-60 -15 -125 -75 -125 -115 0 -31 -4 -31 137 -9 93
13 120 14 154 4 40 -12 41 -13 35 -49 -3 -20 -9 -57 -12 -81 l-7 -44 39 7 c85
16 124 59 124 134 0 49 -33 100 -81 126 -23 13 -41 32 -48 53 -14 39 -65 71
-162 102 -37 12 -74 30 -83 40 -15 17 -15 20 -1 34 8 9 40 21 71 27 51 11 57
15 71 48 22 53 11 121 -33 201 -64 114 -76 142 -81 197 -5 45 -9 53 -29 58
-61 16 -129 107 -140 190 -9 65 -16 71 -78 70 -85 0 -122 -31 -185 -153 -28
-55 -55 -103 -60 -106 -16 -9 -34 95 -29 169 14 218 230 381 496 375 79 -2 96
0 120 18 42 31 77 90 111 188 18 50 43 115 57 145 l25 55 57 1 c79 0 125 25
181 98 93 121 91 119 133 102 55 -23 69 -21 180 34 55 28 106 50 113 50 7 0
26 -7 43 -16 40 -19 135 -20 198 -1 28 8 91 35 142 61 l92 46 -6 -59 c-4 -36
-3 -61 4 -65 5 -3 59 16 119 43 202 91 271 99 439 46 19 -6 24 0 38 41 9 26
16 62 16 79 0 28 -5 34 -52 56 -38 17 -67 24 -110 23 l-59 -1 -47 73 c-47 72
-47 73 -137 108 -49 20 -139 52 -200 70 -258 80 -351 118 -453 188 -44 31 -62
37 -129 42 -148 13 -300 -24 -434 -105 -67 -41 -140 -96 -294 -222 -66 -54
-143 -113 -172 -130 l-52 -32 -55 -150 c-68 -188 -85 -243 -95 -326 -9 -65 -9
-66 -89 -147 -65 -66 -89 -84 -126 -93 -41 -10 -49 -17 -69 -58 -16 -31 -36
-53 -63 -68 -36 -20 -43 -31 -67 -100 -70 -203 -74 -405 -10 -608 35 -110 56
-148 109 -197 26 -24 85 -95 132 -158 47 -63 106 -139 131 -168 l44 -53 -62
-90 c-78 -113 -91 -144 -91 -218 0 -53 7 -72 60 -175 32 -64 62 -132 66 -151
5 -28 14 -39 38 -49 18 -7 59 -44 92 -80 32 -37 72 -76 89 -86 46 -29 118 -34
227 -16 54 9 127 16 164 16 l65 0 65 -57 c36 -32 76 -76 90 -99 l24 -41 -32
-92 c-21 -62 -44 -107 -69 -134 -28 -33 -39 -56 -49 -109 -14 -78 -58 -177
-99 -223 -22 -25 -29 -46 -35 -97 -12 -119 -55 -290 -105 -416 -16 -40 -21
-75 -21 -147 0 -56 -4 -95 -10 -95 -5 0 -50 -39 -100 -86 -50 -47 -104 -90
-120 -95 -23 -9 -32 -21 -46 -62 -9 -29 -43 -116 -75 -194 -83 -201 -99 -265
-106 -414 -6 -122 -5 -127 17 -149 21 -21 21 -25 10 -60 -12 -38 -11 -41 64
-191 120 -237 183 -317 411 -514 116 -100 134 -120 139 -153 13 -73 69 -229
122 -337 64 -132 169 -294 330 -510 66 -88 144 -195 173 -237 33 -47 71 -88
97 -104 40 -25 66 -54 186 -204 61 -76 139 -136 265 -205 143 -77 209 -123
261 -178 47 -52 51 -63 23 -72 -24 -7 -45 1 -105 42 -88 60 -146 29 -154 -84
-3 -48 3 -78 38 -178 24 -70 43 -148 47 -188 5 -60 12 -76 59 -148 54 -81 79
-144 68 -172 -5 -13 -11 -13 -54 1 -46 14 -51 19 -64 61 -8 25 -22 82 -31 126
-21 101 -47 156 -84 178 -56 33 -69 26 -207 -115 -155 -159 -214 -236 -265
-344 -43 -90 -63 -162 -79 -274 -6 -47 -18 -84 -30 -100 -92 -115 -166 -256
-195 -370 -12 -46 -16 -93 -13 -161 3 -83 8 -104 35 -160 41 -83 72 -112 120
-113 35 -1 39 2 76 62 22 35 52 69 67 77 25 13 29 12 51 -11 22 -23 24 -34 24
-122 -1 -53 -3 -144 -5 -202 -4 -120 -1 -130 91 -260 177 -251 438 -380 691
-341 102 16 148 34 148 58 0 10 11 38 25 62 14 23 25 52 25 62 0 49 -47 117
-145 214 -111 109 -174 190 -159 204 5 5 27 14 49 21 66 20 254 113 343 168
144 90 281 202 453 370 172 168 489 510 501 540 4 9 9 34 13 55 4 23 25 63 56
104 60 79 69 99 69 162 0 64 26 158 56 204 l24 37 90 0 c107 0 263 -20 464
-59 171 -32 132 -5 321 -221 55 -63 206 -227 335 -364 311 -330 461 -495 588
-646 87 -104 112 -127 145 -137 28 -8 59 -31 101 -76 45 -48 70 -66 97 -71 58
-10 67 -1 94 93 29 97 62 170 86 184 29 18 103 -28 160 -99 l52 -65 -21 -38
c-35 -62 -52 -147 -52 -259 l0 -103 62 -82 c190 -250 354 -362 543 -374 l80
-5 70 108 c77 121 112 198 125 280 10 58 0 139 -22 194 l-14 34 88 80 c149
136 214 183 293 207 70 22 73 24 100 76 28 54 106 133 131 133 7 0 18 19 24
43 6 23 36 101 66 174 75 177 84 212 84 313 0 71 4 92 19 111 19 24 19 25 0
48 -16 20 -19 40 -19 140 l0 117 -62 61 c-86 84 -132 113 -180 113 -68 0 -108
-26 -229 -149 -64 -66 -125 -122 -136 -125 -12 -4 -25 -23 -33 -49 -21 -73
-57 -110 -127 -131 -18 -6 -22 -2 -28 26 -46 211 -219 537 -443 835 l-24 33
27 10 c15 6 95 48 179 94 83 46 195 101 250 122 70 28 102 45 109 62 7 15 27
27 62 37 59 18 71 26 109 78 22 30 33 37 60 37 28 0 38 7 61 42 53 81 99 130
249 267 158 144 217 212 264 302 32 62 91 129 114 129 9 0 20 17 28 42 18 63
51 124 160 297 156 249 184 318 206 491 22 186 26 199 85 300 47 80 69 170
109 448 37 248 47 490 31 707 -6 83 -16 299 -21 480 -12 418 -20 488 -67 580
-28 55 -37 87 -43 150 -5 65 -16 99 -53 180 -68 149 -68 198 3 279 62 71 80
104 82 154 2 50 -20 81 -88 122 -102 64 -107 69 -100 109 3 20 9 57 12 83 l7
48 -66 69 c-78 84 -87 103 -58 142 28 37 27 73 -4 113 -39 52 -55 100 -86 267
-16 86 -33 168 -38 181 -14 37 -244 143 -444 204 -53 17 -62 24 -110 88 -197
270 -496 563 -892 875 -150 118 -154 121 -203 121 -42 0 -52 3 -57 20 -4 11
-33 38 -66 60 -32 23 -66 54 -74 71 -9 16 -20 27 -25 24 -10 -6 -65 19 -92 43
-17 14 -26 68 -10 60 85 -44 76 -44 331 -18 86 9 174 9 345 0 313 -14 507 2
589 50 19 11 70 27 113 35 107 20 128 30 159 75 18 25 52 51 107 81 123 66
153 91 173 144 16 40 16 53 6 101 -30 132 -167 194 -425 194 -273 0 -608 -65
-728 -142 -34 -21 -68 -32 -120 -39 -107 -14 -105 -13 -206 -78 -83 -53 -163
-83 -178 -68 -17 17 99 169 261 344 115 124 203 234 241 301 10 17 24 32 32
32 7 0 24 7 37 16 13 9 29 13 34 9 6 -3 22 18 37 49 29 61 75 111 125 135 20
10 36 27 42 46 18 55 58 106 102 133 67 41 90 99 90 227 0 87 -3 107 -26 156
-33 69 -88 132 -146 166 -43 25 -47 25 -226 24 -326 -3 -399 -22 -735 -190
-197 -99 -346 -164 -399 -175 -29 -6 -74 11 -80 30 -2 6 22 22 53 34 77 32
189 107 247 167 l49 50 -27 52 c-80 158 -243 221 -505 194z m229 -299 c-13
-14 -62 -53 -109 -86 -47 -33 -100 -74 -117 -91 -52 -49 -38 -14 18 47 59 65
184 156 213 156 18 0 18 -2 -5 -26z m-1217 -146 c29 -20 35 -21 114 -10 74 10
90 9 137 -7 65 -23 112 -46 153 -77 30 -23 31 -27 43 -149 13 -135 31 -211 59
-245 l18 -22 119 57 c66 32 132 67 148 77 40 29 33 7 -17 -49 -33 -36 -68 -60
-128 -89 -46 -21 -107 -51 -137 -67 -44 -22 -56 -25 -69 -15 -31 26 -52 97
-67 233 -11 99 -20 144 -32 157 -24 26 -147 85 -218 104 -139 36 -360 29 -725
-22 -96 -14 -236 -31 -310 -39 -162 -18 -400 -20 -400 -4 0 50 105 89 243 89
107 0 226 12 552 55 405 54 471 57 517 23z m2618 -108 c-37 -69 -134 -127
-257 -155 -51 -12 -99 -33 -164 -72 -91 -56 -92 -56 -213 -69 -76 -8 -156 -24
-216 -43 -97 -32 -218 -49 -263 -38 -16 5 -48 39 -93 101 -47 65 -77 96 -95
101 -36 8 -112 -10 -191 -46 -37 -17 -92 -33 -121 -36 -52 -5 -54 -4 -61 21
-10 40 3 75 35 91 35 19 39 19 39 0 0 -28 76 -17 181 25 54 22 123 43 152 46
l54 6 64 -85 c35 -47 69 -93 75 -104 10 -16 24 -18 105 -17 78 1 113 8 204 37
78 25 139 37 210 42 106 8 130 16 233 83 40 26 86 44 155 60 53 13 111 34 129
47 41 29 52 31 38 5z m-2987 -231 c-21 -35 -61 -75 -68 -67 -5 5 72 98 81 98
3 0 -3 -14 -13 -31z m-638 -98 c91 -105 152 -160 223 -205 36 -23 42 -31 42
-61 0 -30 7 -39 53 -73 71 -53 136 -124 247 -272 130 -173 210 -250 307 -297
54 -26 93 -54 128 -92 l50 -53 -91 4 c-79 3 -101 9 -160 38 -91 44 -179 130
-312 304 -118 154 -174 216 -242 265 -47 34 -58 50 -60 91 -1 19 -15 33 -57
60 -48 30 -250 232 -313 312 l-21 27 38 25 c60 41 71 37 168 -73z m865 -146
c69 -19 263 -19 347 -1 l63 13 15 -30 c8 -16 15 -31 15 -33 0 -6 -131 -44
-187 -54 -131 -23 -302 -13 -379 22 l-25 12 43 43 c23 24 45 43 48 43 3 0 30
-7 60 -15z m2320 -62 c-28 -36 -636 -745 -686 -801 -42 -45 -83 -64 -230 -101
-194 -50 -512 -64 -864 -38 l-155 12 -7 53 c-11 76 -43 160 -83 217 -19 28
-87 104 -150 169 -64 66 -112 123 -108 127 5 4 38 10 74 14 l66 6 97 -102
c110 -116 157 -199 176 -315 l11 -70 187 -12 c445 -29 748 -4 969 80 l61 23
328 383 c180 210 329 382 331 382 2 0 -5 -12 -17 -27z m-961 -95 c-15 -40 -44
-116 -65 -168 -20 -52 -52 -119 -72 -148 -36 -55 -54 -65 -29 -15 8 15 33 79
56 142 23 63 51 133 63 155 19 39 65 106 72 106 2 0 -9 -33 -25 -72z m-199
-442 c-8 -36 -44 -86 -62 -86 -20 0 -5 45 29 85 20 25 38 43 39 42 2 -1 -1
-20 -6 -41z m2081 -65 c-15 -27 -70 -72 -109 -88 -18 -7 -68 -21 -110 -29 -42
-8 -176 -38 -297 -66 -179 -42 -242 -52 -340 -56 -113 -4 -205 8 -205 26 0 4
24 22 54 40 53 33 55 33 197 36 135 2 162 7 419 64 151 34 295 68 320 76 67
21 83 20 71 -3z m-7218 -216 c-46 -97 -54 -169 -26 -218 17 -28 19 -42 12 -83
-4 -27 -8 -55 -8 -62 -1 -16 -48 7 -76 38 -30 33 -26 120 9 196 28 62 118 215
123 210 2 -2 -13 -38 -34 -81z m1917 -1760 c0 -8 -16 -32 -35 -53 -45 -48 -49
-18 -4 33 35 39 39 41 39 20z m5555 -45 c4 -6 29 -22 56 -35 37 -19 49 -31 49
-48 0 -30 -45 -119 -72 -143 -20 -19 -21 -19 -14 4 3 12 8 30 11 40 3 12 -8
24 -43 42 -54 29 -87 82 -76 124 5 22 12 26 44 26 22 0 42 -5 45 -10z m-5777
-242 c-8 -13 -59 -95 -113 -183 -105 -171 -252 -395 -260 -395 -2 0 28 51 69
113 40 61 112 177 161 257 97 160 143 230 152 230 3 0 -1 -10 -9 -22z m5572
-78 c-30 -38 -50 -54 -34 -27 17 27 59 76 62 72 3 -2 -10 -22 -28 -45z m312
22 c-58 -80 -183 -166 -274 -186 -40 -9 -35 8 16 57 30 30 58 46 94 55 28 8
79 33 114 57 35 24 64 44 66 44 2 1 -6 -12 -16 -27z m-3208 -247 c32 -96 79
-217 105 -267 l47 -93 39 1 c22 0 94 6 159 13 228 26 474 7 721 -55 140 -35
135 -33 135 -60 0 -28 32 -62 99 -107 47 -31 61 -59 61 -120 0 -48 -15 -72
-82 -138 -39 -37 -57 -48 -94 -53 -113 -15 -231 27 -428 152 -133 86 -194 107
-301 106 -75 -1 -183 -28 -207 -52 -4 -4 15 -80 43 -167 28 -88 67 -210 86
-270 19 -61 51 -144 71 -185 l37 -75 160 3 c334 7 588 -65 817 -231 83 -59
139 -123 175 -195 48 -99 44 -271 -13 -514 -20 -84 -31 -112 -51 -130 -65 -57
-79 -79 -107 -161 -30 -91 -51 -117 -137 -175 -50 -34 -104 -91 -121 -128 -8
-18 -19 -24 -42 -24 -36 -1 -46 -8 -103 -70 l-42 -46 25 -113 c23 -110 62
-223 92 -268 9 -14 15 -54 17 -105 1 -46 6 -111 10 -145 8 -60 7 -63 -23 -92
-42 -42 -65 -40 -100 12 -43 63 -67 135 -107 328 -20 96 -44 198 -53 227 l-16
54 -41 -6 c-22 -4 -152 -34 -289 -68 l-248 -63 6 -60 c4 -33 27 -118 52 -190
25 -71 52 -155 61 -185 16 -58 14 -143 -5 -192 -10 -25 -13 -26 -54 -17 -58
13 -111 68 -131 140 -9 30 -23 110 -32 179 -25 193 -44 262 -86 307 -20 21
-26 21 -188 16 -291 -10 -503 26 -671 113 -122 62 -174 113 -189 182 -29 138
5 243 93 289 44 23 129 13 198 -22 32 -16 124 -77 205 -136 185 -135 255 -170
344 -177 56 -4 73 -1 107 18 l40 22 -19 67 c-11 36 -35 145 -55 241 -19 96
-42 202 -50 235 -20 81 -74 222 -89 235 -8 7 -31 6 -71 -1 -79 -15 -301 -5
-384 16 -94 25 -239 98 -302 153 -110 95 -187 215 -224 348 -25 92 -30 275 -9
390 17 92 19 98 71 157 30 34 89 109 132 167 75 102 80 106 162 147 47 23 96
54 109 69 21 25 22 34 17 86 -9 77 -25 119 -100 268 -93 182 -111 259 -85 353
12 46 31 48 85 9 58 -43 89 -110 138 -304 42 -169 62 -225 93 -259 26 -30 134
1 313 91 63 31 136 65 162 75 44 16 47 20 42 44 -14 56 -38 119 -72 186 -62
124 -84 194 -85 267 0 37 6 81 13 97 11 28 16 31 60 31 l47 0 57 -175z m3296
5 c0 -23 -89 -105 -212 -196 -85 -62 -123 -86 -110 -67 32 45 121 124 208 185
44 32 87 64 94 73 15 18 20 19 20 5z m113 -291 c-10 -17 -34 -45 -54 -63 -42
-36 -129 -99 -129 -94 0 16 63 83 123 130 40 31 73 57 75 58 2 0 -5 -14 -15
-31z m143 -270 c34 -21 36 -42 7 -66 -11 -9 -24 -8 -55 3 -63 22 -80 18 -152
-37 -77 -58 -74 -39 6 38 106 104 120 108 194 62z m-6840 -64 c-9 -13 -32 -54
-52 -90 l-36 -65 32 -36 c38 -43 37 -52 -20 -172 -32 -68 -115 -202 -125 -202
-2 0 19 43 46 95 58 112 61 146 20 184 l-29 27 34 64 c37 70 134 220 141 220
3 0 -2 -11 -11 -25z m-246 -706 c0 -69 0 -70 -30 -80 -16 -6 -30 -15 -30 -20
0 -5 -4 -9 -8 -9 -4 0 -7 21 -6 46 1 34 10 57 34 90 17 24 33 44 36 44 2 0 4
-32 4 -71z m-100 -236 c0 -32 -5 -102 -12 -155 -9 -75 -9 -111 0 -161 11 -60
11 -68 -8 -100 -12 -19 -25 -48 -30 -64 -44 -145 -59 -204 -55 -216 3 -7 29
-27 58 -44 29 -16 84 -48 122 -71 132 -76 166 -141 134 -255 -9 -33 -14 -38
-37 -35 -22 3 -28 9 -35 46 -12 59 -60 105 -177 167 -114 60 -154 92 -145 114
4 9 20 61 37 116 16 55 39 118 52 140 15 28 20 48 15 65 -14 50 -3 329 17 436
4 24 41 74 55 74 5 0 9 -26 9 -57z m-217 -250 c-35 -43 -227 -204 -277 -234
-18 -10 -17 -9 2 17 31 44 108 115 197 181 44 33 87 68 94 77 8 9 16 14 19 11
3 -3 -13 -26 -35 -52z m-502 -370 c-35 -70 -66 -165 -82 -253 -16 -91 -14
-309 5 -407 8 -44 13 -97 9 -116 -12 -74 54 -163 222 -301 56 -47 119 -104
138 -127 l36 -41 133 -14 c73 -8 191 -18 261 -23 70 -5 130 -11 133 -13 2 -3
-5 -34 -16 -69 -11 -35 -20 -90 -20 -121 0 -50 5 -64 34 -105 19 -27 52 -89
75 -140 64 -147 109 -205 180 -231 17 -6 29 -25 44 -72 23 -69 27 -71 121
-107 l49 -19 24 -84 c13 -47 27 -99 32 -116 5 -18 11 -37 15 -43 4 -6 80 -60
169 -120 89 -61 189 -132 222 -158 88 -71 137 -103 260 -167 72 -37 129 -76
165 -111 61 -58 82 -71 250 -141 69 -29 129 -62 154 -83 37 -34 44 -36 124
-42 83 -5 86 -6 116 -42 18 -20 57 -47 91 -62 224 -99 434 -150 745 -179 119
-11 140 -16 174 -39 69 -48 122 -57 322 -57 l182 0 17 -26 17 -27 167 6 c91 3
209 13 261 22 52 9 160 18 240 19 152 4 142 2 303 68 40 16 76 22 157 24 121
2 207 23 356 85 238 98 297 121 362 137 56 14 80 27 122 65 56 51 152 101 214
113 24 4 56 22 86 49 27 24 68 56 92 72 60 41 179 105 185 99 12 -12 -32 -68
-70 -89 -23 -13 -77 -44 -120 -68 -43 -24 -104 -67 -135 -95 -42 -38 -73 -56
-116 -68 -86 -25 -164 -68 -215 -117 -38 -37 -57 -46 -130 -65 -47 -12 -149
-49 -226 -82 -274 -117 -336 -134 -485 -137 -100 -2 -110 -4 -205 -45 l-100
-43 -140 -3 c-77 -1 -185 -9 -240 -19 -55 -9 -177 -19 -270 -22 l-171 -6 -17
27 -18 26 -182 -1 c-201 -1 -242 7 -325 59 -40 25 -61 31 -141 36 -111 8 -274
30 -376 51 -201 42 -460 143 -485 191 -16 30 -58 44 -129 44 -57 0 -68 5 -149
64 -18 14 -67 39 -110 56 -156 64 -197 87 -245 137 -35 36 -85 69 -188 124
-81 43 -176 102 -224 141 -46 37 -159 119 -252 182 l-168 114 -24 84 c-13 45
-26 99 -28 119 -5 39 2 34 -124 87 -44 19 -47 22 -64 83 -16 61 -19 65 -66 87
-59 28 -94 75 -151 205 -45 100 -76 155 -102 176 -22 19 -21 87 5 183 12 44
19 81 16 84 -3 3 -58 9 -124 14 -65 5 -179 14 -253 21 l-135 12 -75 72 c-41
39 -114 103 -161 143 -48 40 -104 97 -125 128 -36 52 -40 63 -46 148 -4 50
-11 120 -17 156 -32 196 11 485 91 620 29 48 91 140 95 140 1 0 -10 -26 -26
-57z m619 -382 l45 -24 -45 -21 c-38 -17 -70 -21 -217 -24 l-173 -4 0 41 c0
37 3 41 33 50 17 6 95 9 172 8 126 -2 145 -5 185 -26z m33 -205 c23 -13 85
-36 137 -51 95 -26 134 -45 158 -74 20 -25 39 -64 46 -95 l7 -29 -57 6 c-35 4
-64 13 -78 25 -30 27 -203 107 -263 121 -64 16 -100 50 -84 80 25 46 73 52
134 17z m6957 -1417 c-7 -11 -14 -19 -16 -16 -7 7 7 37 17 37 6 0 5 -9 -1 -21z
m-288 -506 c-56 -69 -292 -298 -292 -283 -1 12 306 320 318 320 2 0 -10 -17
-26 -37z m-5507 -1163 c7 -21 91 -70 120 -70 10 0 15 -10 15 -34 0 -40 -28
-66 -72 -66 -32 0 -111 34 -128 56 -21 25 -16 81 10 109 28 30 46 32 55 5z
m282 -132 c15 -15 46 -35 70 -44 44 -17 51 -31 33 -65 -10 -17 -13 -18 -34 -4
-12 8 -43 18 -69 21 -45 6 -47 5 -47 -17 -1 -23 -2 -23 -31 10 -27 29 -30 40
-26 72 3 20 20 59 38 86 l34 48 3 -40 c2 -26 12 -49 29 -67z m3853 31 c0 -6 6
-9 14 -6 14 5 62 -24 78 -48 14 -19 8 -49 -14 -72 -26 -28 -59 -30 -83 -3 -10
11 -26 20 -35 20 -35 0 -47 71 -18 108 13 15 58 16 58 1z m-3587 -117 c11 -12
38 -25 59 -28 32 -6 36 -9 28 -25 -6 -10 -10 -30 -10 -44 l0 -27 -72 7 c-40 4
-79 12 -85 17 -36 29 -19 123 30 176 l22 24 3 -39 c2 -21 13 -48 25 -61z
m3397 1 c16 -16 37 -45 45 -65 15 -36 14 -38 -9 -53 -33 -22 -70 -10 -106 33
-31 38 -41 96 -17 105 29 12 59 5 87 -20z m-3150 -19 c0 -30 49 -55 94 -47 27
6 28 5 16 -18 -36 -70 -96 -99 -154 -75 -23 9 -36 22 -36 33 2 47 48 133 72
133 4 0 8 -11 8 -26z m302 -92 c25 -3 26 -5 17 -32 -14 -39 -40 -60 -83 -67
-30 -5 -36 -3 -38 13 -3 43 5 71 35 118 l32 49 5 -39 c4 -33 9 -39 32 -42z
m2266 12 c26 -13 32 -21 32 -49 0 -37 -14 -52 -57 -61 -27 -5 -31 -3 -42 27
-6 18 -21 43 -32 55 l-21 23 33 10 c48 13 52 13 87 -5z m-3136 -10 c70 -12
105 -74 53 -94 -50 -19 -138 43 -121 85 6 17 14 18 68 9z m3529 -46 c37 -32
49 -50 49 -70 0 -31 -31 -68 -56 -68 -42 0 -102 56 -131 122 -10 24 -9 29 10
43 38 26 74 19 128 -27z m542 18 c44 -19 91 -65 116 -115 18 -34 19 -41 6 -41
-8 0 -24 -5 -34 -11 -42 -27 -118 24 -164 109 l-27 50 27 10 c38 14 39 14 76
-2z m-1535 -92 c56 -37 102 -72 102 -79 0 -17 -60 -91 -71 -87 -22 6 -176 113
-201 139 -26 27 -27 30 -12 52 15 21 46 39 70 40 6 1 56 -29 112 -65z m423 -3
c34 -33 39 -45 39 -82 0 -58 -10 -72 -43 -64 -44 11 -100 75 -117 134 -7 25
-5 33 8 41 36 20 73 11 113 -29z m-2677 3 c41 -14 47 -20 42 -38 -3 -11 -6
-27 -6 -33 0 -18 -72 -17 -114 1 -42 17 -57 54 -30 73 24 17 50 16 108 -3z
m3616 -21 c0 -10 9 -31 20 -48 41 -61 19 -114 -38 -93 -25 10 -32 18 -32 40 0
16 -12 41 -31 62 -17 20 -28 40 -24 46 3 5 28 10 56 10 40 0 49 -3 49 -17z
m-3410 -52 c0 -14 10 -20 39 -25 22 -3 43 -10 46 -16 3 -5 -6 -32 -20 -59
l-26 -50 -32 20 c-18 10 -44 19 -59 19 -25 0 -28 4 -28 31 0 37 15 68 43 91
24 19 37 15 37 -11z m2821 -3 c51 -35 73 -71 67 -110 -2 -17 -10 -24 -32 -26
-47 -6 -71 6 -89 42 -9 19 -30 42 -47 51 -39 20 -38 42 3 60 44 19 44 19 98
-17z m-2341 -62 c0 -5 -14 -31 -31 -58 -21 -32 -35 -46 -42 -39 -17 17 -10 57
19 100 26 39 29 41 41 25 7 -10 13 -22 13 -28z m-203 -16 c13 0 23 -5 23 -10
0 -21 -30 -70 -49 -80 -30 -16 -76 -12 -94 8 -14 16 -13 21 20 64 33 45 36 47
56 33 12 -8 32 -15 44 -15z m2968 -3 c43 -42 57 -94 30 -114 -55 -39 -145 19
-145 94 0 48 4 53 47 53 25 0 43 -9 68 -33z m-942 -41 c41 -39 47 -51 47 -86
0 -48 -12 -56 -67 -41 -40 11 -81 47 -103 90 -10 20 -10 25 4 33 9 5 16 19 16
32 0 12 3 25 6 29 12 11 50 -11 97 -57z m-2929 -23 c29 -24 32 -33 28 -63 -7
-52 -16 -54 -43 -13 -19 31 -31 39 -59 41 -84 6 -95 17 -59 53 29 29 87 21
133 -18z m4418 0 c39 -41 52 -63 62 -105 6 -27 5 -28 -33 -28 -50 0 -96 37
-112 91 -11 34 -10 42 6 59 25 28 36 25 77 -17z m-4802 17 c0 -17 51 -60 71
-60 25 0 25 -36 -1 -77 -29 -48 -54 -43 -84 15 -12 23 -23 32 -41 32 -33 0
-37 34 -9 78 15 22 64 32 64 12z m3672 -27 c26 -24 45 -61 49 -98 4 -28 1 -30
-30 -33 -28 -3 -41 3 -77 39 -43 42 -52 67 -38 104 9 22 67 14 96 -12z m377
-69 c17 -14 31 -34 31 -45 0 -10 5 -19 10 -19 6 0 10 -22 10 -50 l0 -50 -39 0
c-34 0 -40 4 -51 31 -7 17 -30 42 -51 55 -36 22 -38 26 -28 51 6 15 15 33 21
40 17 21 64 15 97 -13z m555 -3 c20 -17 46 -71 46 -96 0 -22 -42 -19 -73 6
-33 25 -57 97 -37 109 16 10 38 3 64 -19z m-4009 -19 c19 -35 23 -37 67 -36
l47 0 -14 -27 c-15 -28 -70 -79 -86 -79 -5 0 -9 8 -9 19 0 13 -7 19 -26 19
-29 0 -84 47 -84 73 0 17 56 69 75 69 6 0 19 -17 30 -38z m237 -42 c-4 -57 -3
-59 22 -66 15 -3 38 -4 51 -2 34 7 32 -11 -9 -58 -31 -35 -37 -38 -80 -36 -26
1 -52 4 -57 7 -12 8 -11 60 2 106 9 30 62 109 73 109 1 0 0 -27 -2 -60z m4576
18 c-8 -13 -28 -45 -43 -73 -16 -27 -50 -81 -75 -120 -67 -99 -110 -179 -110
-200 0 -10 9 -29 21 -41 l21 -22 -22 -74 c-11 -40 -31 -108 -44 -152 -15 -54
-30 -84 -47 -97 -13 -10 -27 -19 -30 -19 -4 0 8 47 27 105 40 122 41 141 13
171 l-21 22 21 46 c11 26 46 86 77 134 32 48 86 137 122 197 60 103 89 145
100 145 2 0 -2 -10 -10 -22z m-5214 -25 c4 -5 31 -15 59 -23 57 -18 68 -36 43
-75 -22 -33 -70 -42 -104 -18 -15 10 -40 20 -57 23 -43 7 -45 40 -5 74 32 26
51 32 64 19z m3342 -47 c29 -30 62 -57 74 -61 26 -8 26 -37 0 -60 -11 -10 -20
-26 -20 -36 0 -16 -6 -15 -52 12 -70 40 -115 91 -123 139 -8 49 -2 60 36 60
24 0 43 -12 85 -54z m914 -25 c29 -42 27 -94 -5 -111 -30 -16 -33 -14 -80 64
l-35 58 23 28 22 27 27 -19 c15 -10 36 -32 48 -47z m-4594 34 c-4 -10 8 -23
34 -40 32 -20 40 -31 40 -56 0 -16 -7 -44 -16 -60 l-15 -30 -20 25 c-11 13
-35 34 -55 47 -33 20 -35 24 -29 58 11 64 15 71 42 71 18 0 24 -4 19 -15z
m1210 -18 c-16 -24 -16 -25 14 -37 16 -7 41 -9 55 -6 30 8 31 1 5 -42 -24 -38
-78 -67 -111 -58 -50 13 -52 20 -20 74 46 78 63 103 68 98 3 -2 -3 -15 -11
-29z m2801 -54 c58 -26 73 -43 73 -80 0 -25 -4 -33 -17 -33 -10 0 -28 -3 -40
-6 -20 -5 -23 -2 -23 20 0 21 -7 29 -30 37 -32 11 -37 28 -20 60 13 23 11 23
57 2z m348 -35 c14 -6 25 -15 25 -19 0 -5 13 -23 29 -41 37 -43 55 -102 35
-119 -23 -19 -74 -13 -101 13 -50 47 -68 115 -41 158 15 23 19 24 53 8z
m-3753 -35 c65 -31 71 -47 38 -100 -21 -35 -32 -35 -82 -1 -14 10 -40 21 -57
24 -17 4 -31 11 -31 16 0 12 59 88 68 88 4 0 33 -12 64 -27z m4194 -85 c25
-49 54 -70 112 -83 17 -3 32 -9 32 -11 0 -8 -50 -104 -54 -104 -2 0 -33 9 -69
20 -65 20 -65 21 -105 92 -44 81 -43 110 6 149 25 19 27 20 40 2 7 -10 25 -39
38 -65z m-4585 20 c43 -47 49 -51 65 -37 35 29 -7 -34 -49 -73 -48 -45 -57
-47 -57 -12 0 31 -25 53 -57 54 -27 0 -28 8 -8 58 14 32 39 62 54 62 2 0 26
-23 52 -52z m-275 -88 c23 0 16 -13 -21 -43 -19 -15 -35 -34 -35 -42 0 -18
-14 -19 -41 -5 -11 6 -19 21 -19 35 0 29 -25 56 -45 49 -26 -10 -16 16 22 60
l37 43 44 -48 c24 -27 50 -49 58 -49z m3944 67 c44 -22 45 -23 48 -75 3 -47 1
-52 -18 -52 -46 0 -110 51 -110 87 0 27 17 63 28 62 4 0 27 -10 52 -22z
m-3080 -12 c0 -8 7 -15 15 -15 9 0 29 -7 44 -14 25 -13 31 -13 51 1 21 15 22
15 10 -6 -6 -13 -30 -41 -52 -63 -31 -31 -45 -38 -61 -33 -12 4 -37 9 -54 12
-27 4 -33 10 -33 30 0 31 25 79 47 92 25 14 33 13 33 -4z m3417 -81 l62 -66
-21 -29 c-16 -22 -25 -26 -39 -19 -25 14 -75 81 -82 110 -7 27 1 70 12 70 3 0
34 -30 68 -66z m-3160 16 c-6 -23 26 -36 68 -28 l24 5 -20 -38 c-27 -54 -85
-81 -133 -63 -20 8 -20 27 0 67 16 31 53 77 62 77 2 0 2 -9 -1 -20z m-575
-119 c18 12 28 11 28 -1 0 -13 -86 -100 -98 -100 -5 0 -14 11 -20 24 -6 13
-31 34 -57 46 -42 20 -46 25 -40 49 4 14 18 41 32 60 l26 34 58 -60 c40 -41
62 -57 71 -52z m-445 19 c8 -21 18 -30 33 -30 19 0 21 -4 15 -22 -4 -13 -9
-35 -12 -50 -8 -39 -83 -51 -83 -12 0 8 -9 23 -20 34 -21 21 -20 50 2 93 15
28 52 21 65 -13z m-297 -36 c0 -13 9 -32 20 -42 20 -19 20 -19 0 -37 -17 -15
-24 -16 -49 -5 -49 20 -58 37 -32 63 11 13 21 30 21 38 0 9 3 19 7 22 11 12
33 -14 33 -39z m4313 -5 c54 -25 95 -169 48 -169 -30 0 -84 43 -108 85 -29 51
-29 69 0 83 29 14 32 14 60 1z m-3370 -63 c12 -3 34 -6 50 -6 33 0 34 -7 4
-51 -27 -41 -69 -59 -97 -41 -11 7 -27 12 -35 12 -30 0 -12 73 27 110 22 21
23 21 26 2 2 -11 13 -23 25 -26z m-457 -61 c20 -14 50 -25 65 -25 42 0 43 -41
3 -77 -35 -32 -78 -29 -125 8 -21 17 -44 27 -50 23 -23 -14 3 41 32 69 16 15
31 27 34 27 2 0 21 -11 41 -25z m732 8 c46 -7 47 -17 10 -58 -38 -42 -99 -57
-132 -32 -16 12 -17 17 -6 38 24 45 53 71 75 64 11 -4 35 -9 53 -12z m-1088
-38 c0 -15 11 -36 25 -49 33 -30 33 -56 0 -56 -25 0 -51 -32 -40 -50 14 -22
-25 -8 -44 16 -27 34 -26 66 0 121 24 50 59 61 59 18z m5751 -33 c-18 -34
-127 -128 -215 -186 -47 -31 -87 -56 -90 -56 -2 0 2 17 11 39 10 26 26 43 49
55 49 23 162 98 209 139 43 38 53 40 36 9z m-5099 -88 c21 -15 38 -31 38 -36
0 -5 -9 -27 -20 -48 -25 -48 -54 -52 -98 -15 -17 14 -39 25 -51 25 -12 0 -21
5 -21 12 0 17 78 88 97 88 9 0 34 -12 55 -26z m-474 -86 c4 -16 12 -19 51 -16
45 2 46 1 49 -27 2 -28 -2 -32 -50 -52 -29 -12 -62 -23 -73 -24 -38 -3 -56 1
-50 11 3 5 -3 15 -15 22 -27 17 -25 27 10 75 23 32 35 40 51 36 12 -4 24 -15
27 -25z m702 22 c22 -14 0 -44 -34 -48 -37 -5 -59 14 -45 39 11 21 53 25 79 9z
m-396 -133 c17 -13 17 -15 -6 -41 -18 -21 -36 -29 -71 -33 l-47 -6 0 36 c0 24
6 39 18 46 24 15 85 13 106 -2z m4677 -35 c-10 -18 -4 -24 53 -56 73 -41 82
-43 109 -18 11 9 -4 -14 -34 -51 -61 -76 -76 -80 -147 -32 -20 14 -42 25 -49
25 -7 0 -13 5 -13 10 0 20 29 80 56 115 28 37 43 41 25 7z m-4928 -183 c14 -6
29 -21 35 -33 5 -11 46 -63 91 -114 93 -106 101 -120 101 -161 0 -36 3 -36
-74 -14 -51 14 -71 27 -121 77 -56 57 -135 184 -135 218 0 36 54 50 103 27z
m4792 -189 c-20 -39 -21 -126 -3 -170 23 -55 40 -63 112 -58 58 5 64 4 54 -11
-19 -30 -58 -52 -111 -63 -73 -14 -102 -1 -129 59 -34 77 -17 165 48 242 33
40 49 40 29 1z"/>
<path d="M5070 7774 c-30 -8 -79 -26 -108 -39 -78 -36 -252 -135 -252 -144 0
-17 61 -221 85 -286 33 -86 117 -250 148 -289 23 -28 23 -28 67 -13 25 8 114
31 198 51 85 19 179 47 209 61 53 24 54 26 48 57 -12 63 -38 134 -102 280 -58
135 -103 273 -103 320 0 16 -8 18 -67 17 -38 0 -93 -7 -123 -15z"/>
<path d="M4489 7457 c-198 -182 -209 -194 -235 -251 -14 -31 -31 -92 -36 -134
l-10 -76 33 -28 c71 -59 172 -75 339 -53 199 25 200 26 200 45 0 35 -51 212
-85 296 -33 83 -111 220 -138 242 -9 8 -26 -2 -68 -41z"/>
<path d="M6042 6569 c-75 -9 -138 -42 -169 -88 -28 -42 -29 -65 -3 -101 29
-40 72 -154 125 -329 45 -147 80 -241 91 -241 14 0 137 68 190 105 186 133
275 313 239 487 -24 114 -31 122 -128 142 -47 9 -115 19 -153 22 -38 2 -82 6
-99 8 -16 1 -58 -1 -93 -5z"/>
<path d="M5605 6471 c-11 -5 -67 -16 -125 -26 -122 -20 -200 -40 -251 -66 -47
-24 -112 -96 -105 -118 3 -9 17 -50 32 -91 14 -41 41 -146 60 -233 54 -253
107 -387 154 -387 30 0 309 58 365 76 80 26 185 84 185 103 -1 68 -89 378
-135 479 -20 42 -38 100 -42 131 -7 63 -34 125 -58 135 -22 8 -55 7 -80 -3z"/>
<path d="M2303 10083 c-4 -16 -7 -86 -8 -158 0 -121 2 -134 27 -188 23 -49 31
-58 50 -55 30 4 35 52 14 114 -11 32 -13 67 -9 132 3 49 3 110 -1 135 -7 44
-9 47 -36 47 -24 0 -31 -5 -37 -27z"/>
<path d="M1500 10071 c-79 -25 -152 -95 -220 -211 -39 -67 -90 -201 -90 -237
0 -27 89 -120 123 -128 15 -4 42 -4 60 -1 28 6 36 15 65 79 18 40 76 131 128
202 53 71 100 137 104 146 11 19 -40 112 -73 133 -30 20 -67 26 -97 17z"/>
<path d="M2483 10065 c-35 -24 -48 -79 -34 -141 l12 -54 52 0 c29 0 69 5 90
11 39 10 43 19 38 84 -8 87 -96 143 -158 100z"/>
<path d="M1666 9554 c-49 -50 -59 -132 -19 -164 21 -17 38 -20 82 -18 l56 3
17 51 c13 40 15 60 7 88 -19 68 -93 89 -143 40z"/>
<path d="M1950 9396 c-94 -26 -137 -63 -235 -201 -78 -110 -121 -195 -103
-206 43 -27 92 5 144 94 20 34 84 111 143 172 117 119 144 156 114 154 -10 0
-38 -6 -63 -13z"/>
<path d="M3610 468 c0 -198 128 -316 400 -368 217 -42 372 -49 1012 -47 l607
3 32 23 c31 23 33 24 253 18 142 -4 249 -12 301 -22 170 -34 264 -30 360 18
82 40 87 54 55 141 -37 99 -131 168 -273 201 -36 8 -141 22 -233 31 -208 20
-650 14 -809 -11 -139 -22 -527 -30 -712 -16 -81 7 -274 25 -428 41 -154 16
-344 33 -422 36 l-143 7 0 -55z"/>
</g>
</svg>
